<?xml version="1.0" encoding="UTF-8"?>
<svg version="1.1" viewBox="0 0 1600 1600" width="1280" height="1280" xmlns="http://www.w3.org/2000/svg">
<path transform="translate(283,472)" d="m0 0c40.2-0.0055 80.4-0.0108 121-0.0159 0.787-9.98e-5 1.57-2e-4 2.38-3.02e-4 84.3-0.0107 169-0.0199 253-0.0262 1.87-1.39e-4 3.74-2.79e-4 5.61-4.18e-4 39.3-0.00292 78.5-0.00564 118-0.00812 19.7-0.00125 39.5-0.00253 59.2-0.00385 2.98-1.99e-4 5.95-3.97e-4 8.93-5.95e-4 45.8-0.00306 91.7-0.00697 138-0.0133 0.986-1.37e-4 1.97-2.74e-4 2.99-4.15e-4 15.9-0.00221 31.8-0.0045 47.7-0.00679 45.8-0.0066 91.6-0.0127 137-0.0153 0.941-5.35e-5 1.88-1.07e-4 2.85-1.62e-4 20.6-0.00117 41.3-0.00206 61.9-0.0027 8.31-2.62e-4 16.6-5.62e-4 24.9-8.76e-4 0.909-3.34e-5 1.82-6.69e-5 2.75-1.01e-4 29.3-0.0011 58.7-0.00537 88-0.0113 29.5-0.00596 59.1-0.00882 88.6-0.00734 4.07 2.03e-4 8.15 3.7e-4 12.2 5.16e-4 0.799 2.99e-5 1.6 5.98e-5 2.42 9.05e-5 12.7 3.82e-4 25.4-0.00261 38-0.00699 12.4-0.00423 24.9-0.00494 37.3-0.00182 6.67 0.00157 13.3 0.0014 20-0.00305 6.05-0.00401 12.1-0.00352 18.2 7.43e-4 2.19 7.21e-4 4.38-2.77e-4 6.57-0.0031 2.95-0.00356 5.89-0.00109 8.84 0.00304 0.864-0.00251 1.73-0.00502 2.62-0.0076 5.82 0.0176 5.82 0.0176 6.93 1.13 0.877 10.7-0.594 21.8-1.31 32.4-0.0682 1.02-0.136 2.04-0.207 3.09-0.48 7.16-0.976 14.3-1.48 21.5-0.058 0.831-0.116 1.66-0.176 2.52-6.07 86.7-21.8 173-99.8 401l-1.46 3.29c-4.86 10.9-9.85 21.7-15.3 32.3-0.913 1.78-1.82 3.55-2.73 5.33-19.6 38.4-41.4 75.9-66.2 111-1.37 1.96-2.74 3.92-4.1 5.89-18 25.9-37.9 50.6-58.7 74.3-1.05 1.22-2.09 2.45-3.12 3.69-0.532 0.642-1.06 1.28-1.61 1.95-0.719 0.881-0.719 0.881-1.45 1.78-1.3 1.29-1.3 1.29-3.3 1.29-0.221 0.546-0.442 1.09-0.67 1.65-1.75 3.09-4.11 5.41-6.61 7.89-0.789 0.792-0.789 0.792-1.59 1.6-1.12 1.12-2.24 2.23-3.36 3.35-1.68 1.67-3.35 3.35-5.02 5.03-13.3 13.3-27.4 26.6-47.3 26.7-0.797-0.00455-1.59-0.00909-2.41-0.0138-0.871 0.00305-1.74 0.00611-2.64 0.00925-2.92 0.0078-5.84 0.00137-8.76-0.00498-2.12 0.00269-4.24 0.00626-6.37 0.0106-5.85 0.00948-11.7 0.00645-17.6 0.00144-6.36-0.00326-12.7 0.00501-19.1 0.0118-11.2 0.0103-22.3 0.0132-33.5 0.0111-12-0.00225-23.9-1.83e-4 -35.9 0.00714-0.756 4.59e-4 -1.51 9.19e-4 -2.29 0.00139-3.08 0.00188-6.16 0.00379-9.24 0.00574-32.1 0.0203-64.3 0.0264-96.4 0.0276-3.46 1.29e-4 -6.92 2.65e-4 -10.4 4.07e-4 -0.858 3.4e-5 -1.72 6.8e-5 -2.6 1.03e-4 -19 8.17e-4 -38 0.0052-57 0.0102-7.83 0.00206-15.7 0.00404-23.5 0.00603-0.865 2.21e-4 -1.73 4.42e-4 -2.62 6.7e-4 -49.6 0.0126-99.1 0.0209-149 0.02-1.86-3.16e-5 -3.71-6.3e-5 -5.57-9.44e-5 -8.38-1.47e-4 -16.8-3.23e-4 -25.1-5.08e-4 -3.74-8.22e-5 -7.47-1.63e-4 -11.2-2.43e-4 -1.87-4.08e-5 -3.74-8.28e-5 -5.61-1.26e-4 -59.1-0.00136-118 0.0133-177 0.0411-14.9 7e-3 -29.8 0.0139-44.7 0.0205-1.38 6.09e-4 -1.38 6.09e-4 -2.78 0.00123-28.3 0.0124-56.5 0.02-84.8 0.0225-0.887 7.99e-5 -1.77 1.6e-4 -2.69 2.42e-4 -19.5 0.00171-39 0.00223-58.4 0.00166-6.97-1.93e-4 -13.9-2.97e-4 -20.9-3.57e-4 -1.73-1.58e-5 -3.47-3.62e-5 -5.2-6.12e-5 -27.6-3.53e-4 -55.3 0.011-82.9 0.0283-27.8 0.0173-55.7 0.0217-83.5 0.00848-3.85-0.00182-7.69-0.00351-11.5-0.00512-1.13-4.8e-4 -1.13-4.8e-4 -2.28-9.7e-4 -11.9-0.00471-23.9 0.00401-35.8 0.0183-11.7 0.0138-23.5 0.013-35.2-0.00238-6.28-0.0078-12.6-0.00922-18.8 0.00691-5.71 0.0145-11.4 0.0107-17.1-0.00785-2.05-0.00344-4.11-1.79e-4 -6.16 0.0106-16.7 0.0818-29.8-1.99-42.5-13.8-9.05-9.55-14-21.6-13.9-34.7 0.512-11.1 5.71-21.5 12.5-30.1h2l1-3c1.46-1.44 1.46-1.44 3.37-3 5-4.24 9.62-8.84 14.2-13.5 1.44-1.45 2.89-2.89 4.34-4.33 5.23-5.22 10.2-10.6 15-16.2 1.48-1.63 2.95-3.25 4.44-4.88 3.68-4.08 7.15-8.27 10.6-12.6 2.03-2.56 4.11-5.08 6.2-7.6 14.5-17.6 28.2-36.1 40.6-55.2 1.17-1.78 2.36-3.55 3.55-5.31 12.2-18 23.2-36.7 34-55.6 1.44-2.52 2.88-5.03 4.32-7.55 4.71-8.24 9.05-16.6 13.2-25.1 1.17-2.35 2.36-4.69 3.55-7.03 38.3-75.1 65.7-156 91.5-279 0.13-0.716 0.26-1.43 0.394-2.17 8.92-49.3 14.7-99.2 17-149 0.0342-0.727 0.0684-1.45 0.104-2.2 0.0895-1.94 0.174-3.87 0.257-5.81 0.253-3.9 0.735-7.73 1.23-11.6z" fill="#000002"/>
<path transform="translate(1599,934)" d="m0 0h1c0.103 50.3 0.198 101 0.254 151 8.28e-4 0.745 0.00166 1.49 0.00251 2.26 0.018 16.2 0.0346 32.4 0.0498 48.6 0.00748 7.94 0.0153 15.9 0.0232 23.8 7.85e-4 0.79 0.00157 1.58 0.00238 2.39 0.0256 25.6 0.0706 51.2 0.126 76.8 0.0566 26.3 0.0935 52.6 0.106 78.9 0.00173 3.72 0.00368 7.44 0.00577 11.2 4.05e-4 0.732 8.09e-4 1.46 0.00123 2.22 0.00708 11.8 0.0349 23.5 0.0705 35.3 0.0354 11.8 0.0483 23.7 0.04 35.5-0.00384 6.41 0.00203 12.8 0.0342 19.2 0.0293 5.88 0.0306 11.8 0.0102 17.6-0.00253 2.12 0.00501 4.24 0.0239 6.36 0.138 16.4-1.87 30.4-13.7 42.8-0.668 0.708-1.34 1.42-2.02 2.14-9.5 9.24-20.7 11.8-33.5 12.4-1.39 0.0632-1.39 0.0632-2.81 0.128-9.97 0.419-19.9 0.457-29.9 0.444-2.06 0.00105-4.12 0.00253-6.17 0.0044-5.62 0.00387-11.2 0.00158-16.8-0.00178-6.12-0.00255-12.2 7.28e-4 -18.4 0.00324-10.7 0.0036-21.4 0.00354-32.2 9.53e-4 -11.5-0.00276-23-0.00333-34.5-0.00126-0.728 1.29e-4 -1.46 2.58e-4 -2.21 3.91e-4 -2.96 5.33e-4 -5.93 0.00108-8.89 0.00165-27.6 0.00528-55.1 0.00565-82.7 0.00285-0.816-8.28e-5 -1.63-1.66e-4 -2.47-2.51e-4 -0.817-8.29e-5 -1.63-1.66e-4 -2.48-2.51e-4 -24.9-0.00253-49.8-0.00317-74.8-0.00198-1.67 7.75e-5 -3.34 1.55e-4 -5.01 2.31e-4 -6.71 3.1e-4 -13.4 6.29e-4 -20.1 9.6e-4 -18.8 9.17e-4 -37.5 0.00149-56.3 0.00179-0.854 1.36e-5 -1.71 2.73e-5 -2.59 4.14e-5 -27.2 4.09e-4 -54.4-7.17e-4 -81.6-0.00289-0.882-7.02e-5 -1.76-1.4e-4 -2.67-2.13e-4 -14.3-0.00114-28.7-0.00236-43-0.00359-56.8-0.00486-114-0.00463-170 2.31e-4 -14.3 0.00122-28.6 0.00243-43 0.00357-1.32 1.06e-4 -1.32 1.06e-4 -2.67 2.13e-4 -27.2 0.00216-54.4 0.00307-81.6 0.00264-0.854-1.36e-5 -1.71-2.72e-5 -2.59-4.12e-5 -18.7-3.13e-4 -37.5-9.46e-4 -56.2-0.00187-6.71-3.29e-4 -13.4-6.42e-4 -20.1-9.51e-4 -1.67-7.74e-5 -3.34-1.56e-4 -5-2.36e-4 -24.9-0.00119-49.8-1.8e-4 -74.7 0.00235-0.816 8.28e-5 -1.63 1.66e-4 -2.47 2.51e-4 -0.814 8.27e-5 -1.63 1.65e-4 -2.47 2.51e-4 -27.5 0.00276-55 0.00174-82.5-0.00353-2.96-5.52e-4 -5.91-0.00109-8.87-0.00161-1.09-1.95e-4 -1.09-1.95e-4 -2.2-3.95e-4 -11.5-0.00197-22.9-6.04e-4 -34.4 0.00216-11.3 0.00265-22.6 0.00162-33.9-0.00301-6.03-0.00237-12.1-0.0032-18.1 4.06e-4 -5.5 0.00325-11 0.00182-16.5-0.00318-1.96-9.98e-4 -3.93-3.64e-4 -5.89 0.00221-10.1 0.0122-20.1-0.1-30.2-0.45-0.883-0.022-1.77-0.044-2.68-0.0666-13.3-0.547-24.6-5.67-33.8-15.4-10.9-13.2-11.3-26.6-11.5-42.9-0.0341-2.08-0.0687-4.16-0.104-6.24-0.354-23.5-0.0859-47 0.213-70.5 0.0726-5.84 0.136-11.7 0.201-17.5 0.126-11.3 0.262-22.6 0.404-34 0.859-4e-4 1.72-8e-4 2.6-0.00121 87.3-0.0407 175-0.0831 281-0.158 1.41-0.00101 2.82-0.00201 4.24-0.00302 29.6-0.0211 59.3-0.0429 88.9-0.0653 14.9-0.0113 29.8-0.0224 44.7-0.0335 2.25-0.00167 4.49-0.00334 6.74-0.00501 34.6-0.0257 69.2-0.0488 104-0.0647 1.11-5.1e-4 1.11-5.1e-4 2.25-0.00103 12-0.00546 24-0.0107 35.9-0.0159 34.5-0.0151 69-0.0317 104-0.0587 1.07-8.33e-4 1.07-8.33e-4 2.15-0.00168 15.6-0.0122 31.2-0.0253 46.8-0.039 6.28-0.00554 12.6-0.011 18.8-0.0163 0.687-5.92e-4 1.37-0.00118 2.08-0.00179 22.1-0.019 44.2-0.0285 66.3-0.0331 22.9-0.00475 45.8-0.0201 68.7-0.0476 13.2-0.0155 26.4-0.0228 39.6-0.0181 8.82 0.00232 17.6-0.00627 26.5-0.0236 5.02-0.00953 10-0.0145 15.1-0.00607 31.6 0.0478 61.9-0.537 90.6-15.4 1.08-0.534 2.15-1.07 3.26-1.62 16-8.21 30-20.3 42.5-33.1 2-2 4.04-3.86 6.2-5.7 7.37-6.33 14.1-13.3 20.5-20.7 1.64-1.86 3.34-3.59 5.11-5.33 3.71-3.66 7.11-7.54 10.5-11.5 0.864-0.998 1.73-2 2.62-3.02 12.1-14 23.8-28.3 34.9-43 1.79-2.36 3.61-4.7 5.43-7.05 5.56-7.16 10.8-14.5 16-21.9 1.13-1.61 1.13-1.61 2.28-3.25 5.69-8.17 11.2-16.4 16.7-24.8 0.414-0.628 0.829-1.26 1.26-1.9 12.9-19.7 25.2-39.7 36.6-60.4 2.22-4.03 4.52-8.02 6.85-12 2.54-4.33 4.89-8.66 7.08-13.2 2.7-5.51 5.5-10.9 8.38-16.4 4.1-7.72 7.99-15.4 11.4-23.5 1.88-4.42 3.96-8.7 6.17-13 4.51-8.76 8.28-17.8 12.1-26.9 2.56-6.06 5.18-12 8.21-17.8z" fill="#000002"/>
<path transform="translate(639,105)" d="m0 0c9.45 7.14 15.6 15.7 19 27 2.17 19.5 1 39.3 1 59 116-0.495 116-0.495 234-1 0.33-17.5 0.66-35 1-53 4.13-15.1 9.46-25.6 22.8-34.4 11.9-6.65 25.5-7.2 38.4-3.59 10.9 3.68 21.3 11.8 26.8 22 10.4 21.7 5 46.3 5 70h238v-53c3.68-14.7 8.84-26.2 22.1-34.4 12.8-7.04 25.6-8.22 39.7-4.68 11.4 3.94 20.1 12 26.2 22.1 3.08 6.48 5.13 12.4 5.11 19.6-1.13e-4 1.68-1.13e-4 1.68-2.29e-4 3.4-0.00516 1.2-0.0103 2.41-0.0156 3.65-0.00141 1.24-0.00283 2.47-0.00429 3.75-0.00465 3.28-0.0136 6.56-0.0247 9.84-0.0102 3.35-0.0147 6.7-0.0198 10.1-0.011 6.57-0.0278 13.1-0.0488 19.7 1.23-0.00184 2.47-0.00369 3.74-0.00559 29.3-0.0433 58.6-0.0763 87.9-0.0965 3.61-0.0025 7.21-0.00509 10.8-0.00773 0.718-5.25e-4 1.44-0.00105 2.18-0.00159 11.6-0.00869 23.2-0.0245 34.9-0.0429 11.9-0.0187 23.9-0.0298 35.8-0.0339 6.7-0.00249 13.4-0.00873 20.1-0.0233 6.31-0.0136 12.6-0.0178 18.9-0.0148 2.31-5.49e-4 4.62-0.00452 6.93-0.0122 3.16-0.00999 6.33-0.00754 9.49-0.0021 0.909-0.00583 1.82-0.0117 2.75-0.0177 14.1 0.0652 25 3.98 35.3 13.7 38.6 41.8 13.3 154 13.3 174h-1315c-0.677-35.9-1.17-71.7-0.816-108 0.0398-4.04 0.0719-8.07 0.0871-12.1 0.0153-3.99 0.0498-7.98 0.0973-12 0.0146-1.49 0.0227-2.99 0.0236-4.48 0.0182-15.8 3.75-27.1 14.4-38.9 10.2-9.82 22.5-12.1 36.1-12.1 0.986-0.00494 1.97-0.00988 2.99-0.015 3.29-0.0153 6.59-0.0237 9.88-0.0321 2.37-0.00958 4.73-0.0196 7.1-0.03 6.42-0.027 12.8-0.048 19.3-0.068 6.03-0.0192 12.1-0.0438 18.1-0.0679 11.9-0.0476 23.9-0.0909 35.8-0.131 11.6-0.0394 23.2-0.0808 34.8-0.125 1.07-0.00409 1.07-0.00409 2.17-0.00826 3.59-0.0137 7.17-0.0274 10.8-0.0411 29.7-0.114 59.5-0.221 89.2-0.323 0.00365-0.648 0.00729-1.3 0.011-1.96 0.0421-6.8 0.112-13.6 0.196-20.4 0.0281-2.53 0.0493-5.06 0.0635-7.59 0.0216-3.66 0.0684-7.31 0.12-11 0.00123-1.11 0.00246-2.23 0.00372-3.38 0.267-14.6 5.05-25.8 14.9-36.5 16.1-15.1 40.6-16.5 58.7-4.25z" fill="#000002"/>
</svg>
